<svg xmlns="http://www.w3.org/2000/svg" viewBox="0 0 96 96" fill="none" role="img" aria-label="Aulora concept B4, Speech-arch, app icon tile">
  <!-- Squircle app-icon treatment: the Speech-arch mark reversed out of an Ember tile. -->
  <rect width="96" height="96" rx="22" fill="#C2410C" />
  <g transform="translate(13.44 13.44) scale(0.72)">
    <path
      fill-rule="evenodd"
      clip-rule="evenodd"
      fill="#FFFFFF"
      d="M30 12H66A18 18 0 0 1 84 30V44A18 18 0 0 1 66 62H30A18 18 0 0 1 12 44V30A18 18 0 0 1 30 12Z M40 53V46A8 8 0 0 1 56 46V53Z"
    />
    <rect x="36" y="49" width="24" height="6" rx="3" fill="#FFFFFF" />
    <path fill="#FFFFFF" d="M30 62H52L24 88Z" />
    <circle cx="66" cy="27" r="4" fill="#4CD964" />
  </g>
</svg>
